<svg xmlns="http://www.w3.org/2000/svg" viewBox="0 0 122.88 63.89"><path d="M0 0h122.88v63.89H0V0zm61.46 13.16c10.4 0 18.8 8.41 18.8 18.8 0 10.4-8.41 18.8-18.8 18.8-10.4 0-18.8-8.41-18.8-18.8s8.4-18.8 18.8-18.8zm2.32 23.67c0-.74-.18-1.33-.55-1.73-.37-.41-1-.81-1.92-1.18-.92-.37-1.77-.74-2.54-1.14-.77-.37-1.44-.85-2.03-1.33-.55-.52-1-1.11-1.29-1.77-.29-.66-.44-1.47-.44-2.43 0-1.59.52-2.88 1.59-3.91 1.07-1.03 2.51-1.62 4.28-1.81v-2.14h2.25v2.18c1.7.26 3.06.96 4.06 2.1s1.47 2.62 1.47 4.39H63.9c0-.96-.18-1.73-.55-2.25-.37-.52-.92-.77-1.59-.77-.63 0-1.11.18-1.44.59-.33.41-.52.92-.52 1.62s.18 1.25.59 1.66c.41.41 1.03.81 1.88 1.18.88.37 1.7.74 2.47 1.14.77.41 1.44.85 1.99 1.36s1 1.11 1.33 1.77c.33.66.48 1.47.48 2.43 0 1.59-.52 2.91-1.51 3.91-1.03 1-2.4 1.59-4.17 1.77v1.99h-2.25v-1.99c-2.03-.22-3.61-.92-4.72-2.1-1.11-1.18-1.66-2.77-1.66-4.68h4.76c0 1.07.22 1.88.7 2.43.48.55 1.14.85 2.03.85.63 0 1.14-.18 1.51-.55.37-.37.55-.88.55-1.55v-.04zM20.54 9.73h81.7c0 5.2 4.24 9.44 9.44 9.44v25.25c-5.2 0-9.44 4.24-9.44 9.44h-81.7c0-5.2-4.24-9.44-9.44-9.44V19.17c5.2 0 9.44-4.24 9.44-9.44z" fill-rule="evenodd" clip-rule="evenodd"/></svg>