<?xml version="1.0" encoding="UTF-8" standalone="no"?>
<svg
   xmlns:dc="http://purl.org/dc/elements/1.1/"
   xmlns:cc="http://creativecommons.org/ns#"
   xmlns:rdf="http://www.w3.org/1999/02/22-rdf-syntax-ns#"
   xmlns:svg="http://www.w3.org/2000/svg"
   xmlns="http://www.w3.org/2000/svg"
   xmlns:sodipodi="http://sodipodi.sourceforge.net/DTD/sodipodi-0.dtd"
   xmlns:inkscape="http://www.inkscape.org/namespaces/inkscape"
   version="1.1"
   id="Layer_1"
   x="0px"
   y="0px"
   width="122.315px"
   height="122.88px"
   viewBox="0 0 122.315 122.88"
   enable-background="new 0 0 122.315 122.88"
   xml:space="preserve"
   sodipodi:docname="loader.svg"
   inkscape:version="0.92.4 (5da689c313, 2019-01-14)"><metadata
     id="metadata11"><rdf:RDF><cc:Work
         rdf:about=""><dc:format>image/svg+xml</dc:format><dc:type
           rdf:resource="http://purl.org/dc/dcmitype/StillImage" /></cc:Work></rdf:RDF></metadata><defs
     id="defs9" /><sodipodi:namedview
     pagecolor="#ffffff"
     bordercolor="#666666"
     borderopacity="1"
     objecttolerance="10"
     gridtolerance="10"
     guidetolerance="10"
     inkscape:pageopacity="0"
     inkscape:pageshadow="2"
     inkscape:window-width="1920"
     inkscape:window-height="1017"
     id="namedview7"
     showgrid="false"
     inkscape:zoom="7.6822918"
     inkscape:cx="46.371725"
     inkscape:cy="75.780247"
     inkscape:window-x="-8"
     inkscape:window-y="-8"
     inkscape:window-maximized="1"
     inkscape:current-layer="Layer_1" /><g
     id="g4"
     style="fill:#ffffff"><path
       fill-rule="evenodd"
       clip-rule="evenodd"
       d="M94.754,14.534c8.844,0,16.014,7.17,16.014,16.012 c0,8.844-7.17,16.015-16.014,16.015c-8.843,0-16.013-7.17-16.013-16.015C78.741,21.704,85.911,14.534,94.754,14.534L94.754,14.534z M109.265,52.121c-7.205,0-13.049,5.844-13.049,13.048c0,7.207,5.844,13.049,13.049,13.051c7.207,0,13.051-5.844,13.051-13.051 C122.315,57.965,116.472,52.121,109.265,52.121L109.265,52.121z M94.135,89.903c-5.032,0-9.114,4.082-9.114,9.113 c0,5.032,4.082,9.114,9.114,9.114c5.031,0,9.113-4.082,9.113-9.114C103.248,93.985,99.166,89.903,94.135,89.903L94.135,89.903z M59.275,104.65c-5.032,0-9.114,4.081-9.114,9.113c0,5.034,4.082,9.116,9.114,9.116s9.113-4.082,9.113-9.116 C68.389,108.731,64.308,104.65,59.275,104.65L59.275,104.65z M23.652,90.86c-4.717,0-8.54,3.823-8.54,8.54 c0,4.715,3.823,8.54,8.54,8.54c4.714,0,8.538-3.825,8.538-8.54C32.19,94.684,28.366,90.86,23.652,90.86L23.652,90.86z M9.096,54.872C4.072,54.872,0,58.944,0,63.968c0,5.021,4.072,9.093,9.096,9.093c5.021,0,9.093-4.072,9.093-9.093 C18.189,58.944,14.116,54.872,9.096,54.872L9.096,54.872z M23.652,17.026c-6.354,0-11.508,5.155-11.508,11.509 s5.154,11.506,11.508,11.506s11.506-5.152,11.506-11.506S30.006,17.026,23.652,17.026L23.652,17.026z M59.341,0 c-7.651,0-13.858,6.205-13.858,13.855c0,7.651,6.207,13.856,13.858,13.856s13.856-6.205,13.856-13.856 C73.197,6.205,66.992,0,59.341,0L59.341,0z"
       id="path2"
       style="fill:#ffffff" /></g><path
     inkscape:connector-curvature="0"
     d="M -0.35796719,28.258392 H 122.52203 v 63.89 H -0.35796719 Z m 61.46000019,13.16 c 10.4,0 18.8,8.41 18.8,18.8 0,10.4 -8.41,18.8 -18.8,18.8 -10.4,0 -18.8,-8.41 -18.8,-18.8 0,-10.39 8.4,-18.8 18.8,-18.8 z m 2.32,23.67 c 0,-0.74 -0.18,-1.33 -0.55,-1.73 -0.37,-0.41 -1,-0.81 -1.92,-1.18 -0.92,-0.37 -1.77,-0.74 -2.54,-1.14 -0.77,-0.37 -1.44,-0.85 -2.03,-1.33 -0.55,-0.52 -1,-1.11 -1.29,-1.77 -0.29,-0.66 -0.44,-1.47 -0.44,-2.43 0,-1.59 0.52,-2.88 1.59,-3.91 1.07,-1.03 2.51,-1.62 4.28,-1.81 v -2.14 h 2.25 v 2.18 c 1.7,0.26 3.06,0.96 4.06,2.1 1,1.14 1.47,2.62 1.47,4.39 h -4.76 c 0,-0.96 -0.18,-1.73 -0.55,-2.25 -0.37,-0.52 -0.92,-0.77 -1.59,-0.77 -0.63,0 -1.11,0.18 -1.44,0.59 -0.33,0.41 -0.52,0.92 -0.52,1.62 0,0.7 0.18,1.25 0.59,1.66 0.41,0.41 1.03,0.81 1.88,1.18 0.88,0.37 1.7,0.74 2.47,1.14 0.77,0.41 1.44,0.85 1.99,1.36 0.55,0.51 1,1.11 1.33,1.77 0.33,0.66 0.48,1.47 0.48,2.43 0,1.59 -0.52,2.91 -1.51,3.91 -1.03,1 -2.4,1.59 -4.17,1.77 v 1.99 h -2.25 v -1.99 c -2.03,-0.22 -3.61,-0.92 -4.72,-2.1 -1.11,-1.18 -1.66,-2.77 -1.66,-4.68 h 4.76 c 0,1.07 0.22,1.88 0.7,2.43 0.48,0.55 1.14,0.85 2.03,0.85 0.63,0 1.14,-0.18 1.51,-0.55 0.37,-0.37 0.55,-0.88 0.55,-1.55 z m -43.24,-27.1 h 81.699997 c 0,5.2 4.24,9.44 9.44,9.44 v 25.25 c -5.2,0 -9.44,4.24 -9.44,9.44 H 20.182033 c 0,-5.2 -4.24,-9.44 -9.44,-9.44 v -25.25 c 5.2,0 9.44,-4.24 9.44,-9.44 z"
     id="path2-7"
     style="clip-rule:evenodd;fill:#00b900;fill-opacity:1;fill-rule:evenodd" /></svg>